<svg id="visual" viewBox="0 0 900 600" width="900" height="600" xmlns="http://www.w3.org/2000/svg" xmlns:xlink="http://www.w3.org/1999/xlink" version="1.1"><path d="M0 392L21.5 395.2C43 398.3 86 404.7 128.8 398C171.7 391.3 214.3 371.7 257.2 368C300 364.3 343 376.7 385.8 389.3C428.7 402 471.3 415 514.2 409C557 403 600 378 642.8 375.2C685.7 372.3 728.3 391.7 771.2 402.8C814 414 857 417 878.5 418.5L900 420L900 601L878.5 601C857 601 814 601 771.2 601C728.3 601 685.7 601 642.8 601C600 601 557 601 514.2 601C471.3 601 428.7 601 385.8 601C343 601 300 601 257.2 601C214.3 601 171.7 601 128.8 601C86 601 43 601 21.5 601L0 601Z" fill="#ffbcef"></path><path d="M0 438L21.5 432.7C43 427.3 86 416.7 128.8 416.8C171.7 417 214.3 428 257.2 432.3C300 436.7 343 434.3 385.8 428.2C428.7 422 471.3 412 514.2 410.8C557 409.7 600 417.3 642.8 418.3C685.7 419.3 728.3 413.7 771.2 418.8C814 424 857 440 878.5 448L900 456L900 601L878.5 601C857 601 814 601 771.2 601C728.3 601 685.7 601 642.8 601C600 601 557 601 514.2 601C471.3 601 428.7 601 385.8 601C343 601 300 601 257.2 601C214.3 601 171.7 601 128.8 601C86 601 43 601 21.5 601L0 601Z" fill="#fe9ddd"></path><path d="M0 453L21.5 456C43 459 86 465 128.8 468.3C171.7 471.7 214.3 472.3 257.2 477C300 481.7 343 490.3 385.8 488.2C428.7 486 471.3 473 514.2 463.8C557 454.7 600 449.3 642.8 451C685.7 452.7 728.3 461.3 771.2 463.3C814 465.3 857 460.7 878.5 458.3L900 456L900 601L878.5 601C857 601 814 601 771.2 601C728.3 601 685.7 601 642.8 601C600 601 557 601 514.2 601C471.3 601 428.7 601 385.8 601C343 601 300 601 257.2 601C214.3 601 171.7 601 128.8 601C86 601 43 601 21.5 601L0 601Z" fill="#fd7bc8"></path><path d="M0 532L21.5 527.8C43 523.7 86 515.3 128.8 516C171.7 516.7 214.3 526.3 257.2 530C300 533.7 343 531.3 385.8 523.8C428.7 516.3 471.3 503.7 514.2 502.2C557 500.7 600 510.3 642.8 515.2C685.7 520 728.3 520 771.2 514.8C814 509.7 857 499.3 878.5 494.2L900 489L900 601L878.5 601C857 601 814 601 771.2 601C728.3 601 685.7 601 642.8 601C600 601 557 601 514.2 601C471.3 601 428.7 601 385.8 601C343 601 300 601 257.2 601C214.3 601 171.7 601 128.8 601C86 601 43 601 21.5 601L0 601Z" fill="#fc53af"></path><path d="M0 564L21.5 559.5C43 555 86 546 128.8 540.5C171.7 535 214.3 533 257.2 538C300 543 343 555 385.8 556.5C428.7 558 471.3 549 514.2 545.2C557 541.3 600 542.7 642.8 546.7C685.7 550.7 728.3 557.3 771.2 556.8C814 556.3 857 548.7 878.5 544.8L900 541L900 601L878.5 601C857 601 814 601 771.2 601C728.3 601 685.7 601 642.8 601C600 601 557 601 514.2 601C471.3 601 428.7 601 385.8 601C343 601 300 601 257.2 601C214.3 601 171.7 601 128.8 601C86 601 43 601 21.5 601L0 601Z" fill="#f90093"></path></svg>